<svg width="1600" height="500" viewBox="0 0 1600 500" fill="none" xmlns="http://www.w3.org/2000/svg">
  <rect width="1600" height="500" fill="#173B28"/>
  <rect x="0" y="0" width="1600" height="500" fill="url(#paint0_linear_0_1)"/>
  <circle cx="1280" cy="104" r="86" fill="#CFE6D6" fill-opacity="0.28"/>
  <circle cx="220" cy="150" r="120" fill="#F5FBF6" fill-opacity="0.18"/>
  <rect x="860" y="88" width="500" height="270" rx="26" fill="#0F281B" fill-opacity="0.45" stroke="#DCE9DF" stroke-opacity="0.35" stroke-width="2"/>
  <rect x="905" y="128" width="240" height="20" rx="10" fill="#F3FAF4" fill-opacity="0.75"/>
  <rect x="905" y="168" width="330" height="14" rx="7" fill="#DCE9DF" fill-opacity="0.75"/>
  <rect x="905" y="196" width="280" height="14" rx="7" fill="#DCE9DF" fill-opacity="0.75"/>
  <rect x="905" y="224" width="210" height="14" rx="7" fill="#DCE9DF" fill-opacity="0.75"/>
  <rect x="135" y="248" width="460" height="135" rx="24" fill="#F4FBF6" fill-opacity="0.12" stroke="#F4FBF6" stroke-opacity="0.26" stroke-width="2"/>
  <rect x="168" y="278" width="180" height="16" rx="8" fill="#F4FBF6" fill-opacity="0.8"/>
  <rect x="168" y="312" width="340" height="14" rx="7" fill="#CFE6D6" fill-opacity="0.7"/>
  <rect x="168" y="340" width="300" height="14" rx="7" fill="#CFE6D6" fill-opacity="0.7"/>
  <defs>
    <linearGradient id="paint0_linear_0_1" x1="84" y1="48" x2="1446" y2="424" gradientUnits="userSpaceOnUse">
      <stop stop-color="#2D6947"/>
      <stop offset="0.52" stop-color="#173B28"/>
      <stop offset="1" stop-color="#10281B"/>
    </linearGradient>
  </defs>
</svg>
